<svg id="Layer_1" data-name="Layer 1" xmlns="http://www.w3.org/2000/svg" viewBox="0 0 24.49 24.49"><defs><style>.cls-1{fill:#010101;}.cls-2{fill:#fff;}</style></defs><rect class="cls-1" width="24.49" height="24.49" rx="4.06"/><path class="cls-2" d="M427.69,292.87a8.71,8.71,0,0,0-4.12-1.48.41.41,0,0,0-.39.23l-.27.79a10.06,10.06,0,0,1,3.1,1.06.64.64,0,0,1-.32,1.2.62.62,0,0,1-.32-.09,8.9,8.9,0,0,0-8.35,0,.64.64,0,0,1-.88-.23.65.65,0,0,1,.23-.88,10.31,10.31,0,0,1,3.12-1.06l-.29-.79a.4.4,0,0,0-.39-.23,8.68,8.68,0,0,0-4.14,1.49c-.83.77-2.47,5.22-2.47,9.07a.35.35,0,0,0,.05.2c1.14,2,4.24,2.52,4.95,2.54h0a.38.38,0,0,0,.31-.16l.77-1a7.6,7.6,0,0,1-2.62-1.08.64.64,0,1,1,.76-1,8.77,8.77,0,0,0,4.76,1.16,8.65,8.65,0,0,0,4.76-1.16.64.64,0,0,1,.9.14.63.63,0,0,1-.14.89,7.49,7.49,0,0,1-2.6,1.08l.75,1a.39.39,0,0,0,.32.16h0c.71,0,3.81-.55,4.94-2.55a.31.31,0,0,0,.06-.19C430.19,298.1,428.54,293.65,427.69,292.87Zm-9.07,7.74a1.64,1.64,0,1,1,1.29-1.6A1.47,1.47,0,0,1,418.62,300.61Zm5.14,0a1.64,1.64,0,1,1,1.29-1.6A1.47,1.47,0,0,1,423.76,300.61Z" transform="translate(-408.95 -285.8)"/></svg>