<svg id="Layer_1" data-name="Layer 1" xmlns="http://www.w3.org/2000/svg" viewBox="0 0 79.71 32.61"><defs><style>.cls-1{fill:#010101;}.cls-2,.cls-3{fill:#fff;}.cls-3{font-size:10px;font-family:GTEestiProDisplay-Medium, GT Eesti Pro Display;font-weight:500;}.cls-4{letter-spacing:0em;}</style></defs><rect class="cls-1" width="79.71" height="32.61" rx="4.06"/><path class="cls-2" d="M399.57,301.92a2.19,2.19,0,0,1,.5,1.63c0,.69,0,1.38,0,2.06a.41.41,0,0,0,.59.42l.12,0a8.21,8.21,0,0,0,5.36-9,7.79,7.79,0,0,0-2.11-4.31,7.94,7.94,0,0,0-7.85-2.39,8.16,8.16,0,0,0-6.25,9.4,8.22,8.22,0,0,0,5.46,6.38c.32.1.58,0,.59-.34,0-.51,0-1,0-1.51a12.79,12.79,0,0,1-1.39,0,1.58,1.58,0,0,1-1.32-.89,3,3,0,0,0-1.14-1.46c-.07-.05-.1-.16-.15-.24s.19-.12.28-.12a1.54,1.54,0,0,1,1.35.84,1.67,1.67,0,0,0,2.12.78.43.43,0,0,0,.32-.34,5.3,5.3,0,0,1,.37-.76.41.41,0,0,1,.05-.09c-.36-.07-.7-.13-1-.21a3.15,3.15,0,0,1-2.39-2.12,7.44,7.44,0,0,1-.25-1.41,3.19,3.19,0,0,1,.74-2.44.27.27,0,0,0,.05-.21,2.93,2.93,0,0,1,0-1.58c.13-.53.21-.58.75-.45a5.08,5.08,0,0,1,1.53.71.45.45,0,0,0,.3.05,8.18,8.18,0,0,1,3.81,0,.46.46,0,0,0,.28,0,6.85,6.85,0,0,1,.84-.46,7.33,7.33,0,0,1,1-.31.22.22,0,0,1,.3.14,3.05,3.05,0,0,1,.08,1.89.32.32,0,0,0,.07.31,6.13,6.13,0,0,1,.51.9,4,4,0,0,1,.14,2.16,3.14,3.14,0,0,1-2.09,2.68C400.61,301.68,400.09,301.78,399.57,301.92Zm-5.11,1.58.1.05c0-.06.08-.14.06-.18a.5.5,0,0,0-.2-.15s-.09.07-.13.11Zm-.37-.46a1.86,1.86,0,0,0-.24-.17s-.08.06-.12.09l.2.2S394,303.11,394.09,303Zm1.22.44v-.07c-.07,0-.13-.08-.2-.07s-.11.06-.16.1.11.11.17.12A.52.52,0,0,0,395.31,303.48Zm.44.06.16-.18c-.05,0-.11-.11-.16-.1s-.11.08-.17.12Zm-2.1-1-.21-.17s-.09.1-.07.13a.7.7,0,0,0,.14.16Z" transform="translate(-381.34 -281.74)"/><path class="cls-2" d="M399.57,301.92c.52-.14,1-.24,1.53-.42a3.14,3.14,0,0,0,2.09-2.68,4,4,0,0,0-.14-2.16,6.13,6.13,0,0,0-.51-.9.32.32,0,0,1-.07-.31,3.05,3.05,0,0,0-.08-1.89.22.22,0,0,0-.3-.14,7.33,7.33,0,0,0-1,.31,6.85,6.85,0,0,0-.84.46.46.46,0,0,1-.28,0,8.18,8.18,0,0,0-3.81,0,.45.45,0,0,1-.3-.05,5.08,5.08,0,0,0-1.53-.71c-.54-.13-.62-.08-.75.45a2.93,2.93,0,0,0,0,1.58.27.27,0,0,1-.05.21,3.19,3.19,0,0,0-.74,2.44,7.44,7.44,0,0,0,.25,1.41,3.15,3.15,0,0,0,2.39,2.12c.34.08.68.14,1,.21a.41.41,0,0,0-.05.09,5.3,5.3,0,0,0-.37.76.43.43,0,0,1-.32.34,1.67,1.67,0,0,1-2.12-.78,1.54,1.54,0,0,0-1.35-.84c-.09,0-.19.08-.28.12s.08.19.15.24a3,3,0,0,1,1.14,1.46,1.58,1.58,0,0,0,1.32.89,12.79,12.79,0,0,0,1.39,0c0,.48,0,1,0,1.51,0,.31-.27.44-.59.34a8.22,8.22,0,0,1-5.46-6.38,8.16,8.16,0,0,1,6.25-9.4,7.94,7.94,0,0,1,7.85,2.39,7.79,7.79,0,0,1,2.11,4.31,8.21,8.21,0,0,1-5.36,9l-.12,0a.41.41,0,0,1-.59-.42c0-.68,0-1.37,0-2.06A2.19,2.19,0,0,0,399.57,301.92Z" transform="translate(-381.34 -281.74)"/><path class="cls-2" d="M394.46,303.5l-.17-.17s.1-.12.13-.11a.5.5,0,0,1,.2.15s0,.12-.06.18Z" transform="translate(-381.34 -281.74)"/><path class="cls-2" d="M394.09,303c-.08.07-.15.13-.16.12l-.2-.2s.1-.1.12-.09A1.86,1.86,0,0,1,394.09,303Z" transform="translate(-381.34 -281.74)"/><path class="cls-2" d="M395.31,303.48a.52.52,0,0,1-.19.08c-.06,0-.11-.08-.17-.12s.11-.1.16-.1.13,0,.2.07Z" transform="translate(-381.34 -281.74)"/><path class="cls-2" d="M395.75,303.54l-.17-.16c.06,0,.11-.11.17-.12s.11.06.16.1Z" transform="translate(-381.34 -281.74)"/><path class="cls-2" d="M393.65,302.56l-.14.12a.7.7,0,0,1-.14-.16s0-.09.07-.13Z" transform="translate(-381.34 -281.74)"/><text class="cls-3" transform="translate(34.4 21.43)">RE<tspan class="cls-4" x="11.23" y="0">P</tspan><tspan x="16.84" y="0">O</tspan></text><text x="-381.34" y="-281.74"/></svg>