<svg id="Layer_1" data-name="Layer 1" xmlns="http://www.w3.org/2000/svg" viewBox="0 0 24.49 24.49"><defs><style>.cls-1{fill:#010101;}.cls-2{fill:#fff;}</style></defs><rect class="cls-1" width="24.49" height="24.49" rx="4.06"/><path class="cls-2" d="M430.71,292.14a7.72,7.72,0,0,1-2.25.61,3.86,3.86,0,0,0,1.72-2.16,7.6,7.6,0,0,1-2.48,1,3.91,3.91,0,0,0-6.75,2.67,3.68,3.68,0,0,0,.1.89A11.09,11.09,0,0,1,413,291a4,4,0,0,0-.53,2,3.91,3.91,0,0,0,1.74,3.25,4.07,4.07,0,0,1-1.77-.49v.05a3.9,3.9,0,0,0,3.13,3.82,3.82,3.82,0,0,1-1,.14,3.54,3.54,0,0,1-.73-.07,3.91,3.91,0,0,0,3.65,2.71,7.82,7.82,0,0,1-4.85,1.67,7.06,7.06,0,0,1-.93-.05,11.11,11.11,0,0,0,17.09-9.35c0-.17,0-.34,0-.51A8.14,8.14,0,0,0,430.71,292.14Z" transform="translate(-408.95 -285.8)"/></svg>